<?xml version="1.0" encoding="utf-8"?>
<!-- Generator: Adobe Illustrator 16.0.3, SVG Export Plug-In . SVG Version: 6.00 Build 0)  -->
<!DOCTYPE svg PUBLIC "-//W3C//DTD SVG 1.1//EN" "http://www.w3.org/Graphics/SVG/1.1/DTD/svg11.dtd">
<svg version="1.1" id="Capa_1" xmlns="http://www.w3.org/2000/svg" xmlns:xlink="http://www.w3.org/1999/xlink" x="0px" y="0px"
	 width="792px" height="612px" viewBox="0 0 792 612" enable-background="new 0 0 792 612" xml:space="preserve">
<path fill-rule="evenodd" clip-rule="evenodd" fill="#DFB144" d="M252.515,305.82c9.837,4.504,18.016,6.757,24.654,6.757
	c8.061,0,15.409-3.082,20.981-8.653c5.453-5.452,8.534-12.801,8.534-20.862c0-13.395-8.534-27.263-25.367-39.59
	c3.912-8.179,10.194-12.92,18.966-14.817l0.592-0.592v-1.067l-0.592-0.474c-9.958,0.711-18.254,5.453-24.774,13.869
	c-11.261-5.216-21.692-7.823-31.53-7.823c-19.203,0-31.768,11.023-31.768,24.536c0,15.41,15.053,28.567,43.383,34.731
	c-2.371,4.978-4.149,8.416-5.927,10.312c-5.215-1.54-10.431-2.37-15.409-2.37c-9.72,0-16.951,2.845-21.692,8.653v0.71
	c4.386,2.134,10.549,3.438,18.136,3.438C239.831,312.577,246.943,310.443,252.515,305.82L252.515,305.82z M254.647,303.806
	c3.2-3.912,5.926-7.705,8.061-11.261c1.778,0.118,3.318,0.237,4.504,0.237c12.447,0,19.559-6.164,19.559-15.41
	c0-6.4-3.794-12.208-11.261-17.661c1.303-4.386,2.845-8.891,4.859-13.513c12.802,8.535,19.795,21.218,19.795,33.782
	c0,16.713-11.379,27.737-28.33,27.737C266.382,307.717,260.812,306.412,254.647,303.806L254.647,303.806z M264.13,290.055
	c3.557-6.045,6.876-15.291,10.313-27.618c6.282,4.267,9.601,9.719,9.601,14.935c0,7.705-5.926,12.921-15.883,12.921
	C266.976,290.293,265.671,290.173,264.13,290.055L264.13,290.055z M256.663,289.463c-23.826-5.334-36.746-16.713-36.746-29.989
	c0-13.987,10.431-23.826,26.552-23.826c8.653,0,18.017,2.371,27.5,7.112c-1.778,3.438-3.556,7.705-5.334,12.92
	c-6.993-3.319-13.75-4.979-20.506-4.979c-6.164,0-11.617,1.304-16.121,3.556l-0.237,0.711l0.356,1.067l0.83,0.118
	c4.742-1.896,9.483-2.726,14.461-2.726c6.638,0,13.395,1.541,20.27,4.622C263.894,270.498,260.812,281.165,256.663,289.463
	L256.663,289.463z M247.298,304.16c-4.623,4.15-10.668,6.164-18.017,6.164c-2.964,0-5.571-0.474-7.942-1.422
	c3.556-3.793,9.364-6.164,15.765-6.164C240.661,302.738,244.098,303.212,247.298,304.16L247.298,304.16z M326.716,250.465
	c10.787-5.453,16.24-11.379,16.24-16.713c0-3.437-2.371-5.809-5.689-5.809c-2.49,0-4.268,1.068-4.742,2.727l-1.422,5.098
	l0.474,0.474c1.422-0.474,2.371-0.83,3.082-0.83c1.541,0,2.49,0.948,2.49,2.371c0,2.252-3.201,6.282-9.72,9.957L326.716,250.465
	L326.716,250.465z M367.848,338.891c-0.117-0.592-0.117-1.185-0.117-1.658c0-7.23,6.045-15.647,18.371-24.655l0.119-0.711
	l-0.474-0.949h-0.712c-16.595,10.787-25.247,23.352-25.484,34.376l0.475,0.592c7.467-1.896,18.372-9.246,29.87-21.929
	c11.261-12.445,19.202-25.603,24.892-41.487c2.965-8.415,4.387-15.883,4.387-22.284c0-7.112-1.541-12.683-4.387-17.069
	c3.201-2.608,5.217-4.504,5.927-6.282l-0.355-0.711c-0.829-0.237-1.54-0.355-2.253-0.355c-1.54,0-4.148,0.71-7.822,2.015
	c-5.216-4.86-14.699-8.179-26.434-8.179c-20.15,0-33.07,9.957-33.07,19.914c0,7.824,7.112,12.92,19.914,12.92h1.659
	c-4.148,6.401-6.874,12.801-8.061,19.084l0.356,0.83l1.303,0.238l0.475-0.593c1.778-7.112,4.979-13.75,9.365-19.795
	c12.801-1.659,23.943-6.519,33.662-14.58c0.83,3.2,1.305,6.401,1.305,9.72c0,18.491-7.112,41.368-20.625,60.926
	C383.021,328.46,374.367,335.928,367.848,338.891L367.848,338.891z M408.979,241.456c-5.688,9.364-16.594,15.765-31.055,17.543
	C384.68,250.465,395.348,244.183,408.979,241.456L408.979,241.456z M374.249,259.592h-1.187c-10.074,0-15.408-4.149-15.408-11.26
	c0-9.009,9.838-16.239,26.077-16.239c9.957,0,17.425,2.726,21.573,7.23C391.436,243.708,381.124,250.347,374.249,259.592
	L374.249,259.592z M452.601,293.493c-2.253,6.756-3.438,11.142-3.438,13.275c0,3.794,2.133,5.927,5.927,5.927
	c6.993,0,13.395-8.89,24.3-23.47c2.488-3.437,4.267-5.688,4.267-7.823c0-0.592-0.118-1.066-0.356-1.66
	c-13.274,18.965-21.098,28.686-25.128,28.686c-1.186,0-2.252-1.066-2.252-2.371c0-1.423,0.354-2.726,0.71-4.149l5.334-18.253
	c1.305-4.386,2.608-7.468,2.608-9.483v-0.237l-0.592-0.829c-3.438-1.542-6.876-2.252-10.432-2.252
	c-6.164,0-12.21,2.488-17.424,7.111c-7.705,6.994-11.854,15.172-11.854,22.047c0,7.942,3.794,12.565,9.72,12.565
	C439.68,312.577,445.369,306.176,452.601,293.493L452.601,293.493z M458.408,275.358c-9.245,22.402-17.898,33.307-22.877,33.307
	c-2.133,0-3.675-1.896-3.675-5.215c0-5.335,2.964-12.447,8.891-20.744c4.504-6.282,8.652-9.246,12.327-9.246
	C455.208,273.46,457.104,274.172,458.408,275.358L458.408,275.358z M473.818,309.614l10.55-34.256
	c0.592-1.778,1.066-2.846,2.726-3.202l4.03-0.948c0.237-0.119,0.593-0.119,0.83-0.119c0.593,0,0.948,0.356,0.948,0.948
	c0,0.237,0,0.474-0.118,0.83l-8.061,25.604c11.853-18.373,20.506-27.5,26.433-27.5c3.675,0,6.52,2.963,6.52,6.638
	c0,2.489-1.186,6.282-3.082,11.735c-2.845,8.06-4.86,13.394-4.86,16.12c0,1.067,1.067,2.016,2.253,2.016
	c3.674,0,11.734-9.365,25.011-27.738c0.236,0.474,0.355,0.948,0.355,1.422c0,2.845-3.438,6.875-8.653,13.75
	c-8.89,11.617-14.936,17.544-19.913,17.544c-4.031,0-6.993-3.082-6.993-7.35c0-3.082,2.252-8.771,5.215-17.78
	c1.896-5.69,2.845-8.771,2.845-9.719c0-0.949-0.829-1.778-1.896-1.778c-2.608,0-8.535,5.571-16.714,17.068
	c-3.792,5.334-6.519,9.958-8.297,13.987c-1.186,2.608-1.067,4.03-3.438,4.504l-4.386,0.83h-0.475c-0.711,0-1.066-0.354-1.066-1.066
	C473.581,310.681,473.581,310.206,473.818,309.614L473.818,309.614z M579.433,279.269c-12.209,20.507-24.894,30.464-34.021,30.464
	c-5.452,0-8.889-3.794-8.889-10.076c17.067-5.215,26.195-13.987,26.195-20.98c0-4.504-3.912-8.179-9.72-8.179
	c-5.216,0-11.498,3.082-16.476,8.889c-5.216,6.165-7.942,12.803-7.942,18.848c0,9.008,5.334,14.816,13.868,14.816
	c9.957,0,21.573-7.349,32.241-22.047c3.319-4.623,5.098-8.06,5.098-10.313C579.788,280.099,579.669,279.625,579.433,279.269
	L579.433,279.269z M536.523,296.931c11.971-2.727,19.201-11.261,19.201-19.084c0-2.964-1.422-4.505-3.911-4.505
	C546.479,273.342,538.894,281.758,536.523,296.931z"/>
</svg>
